<svg id="_2" data-name="2" xmlns="http://www.w3.org/2000/svg" viewBox="0 0 599.35 768"><defs><style>.cls-1,.cls-2,.cls-7,.cls-8{fill:#d8ecef;}.cls-1{opacity:0.5;}.cls-2{opacity:0.23;}.cls-3{fill:#ccdd83;}.cls-4{fill:#dfe8ac;}.cls-5{fill:#becc69;}.cls-6{fill:#aeb755;}.cls-8{opacity:0.61;}.cls-9{fill:none;stroke:#f4dca6;stroke-miterlimit:10;stroke-width:0.5px;}</style></defs><title>feature-image2</title><path class="cls-1" d="M186.51,124.91a28.35,28.35,0,0,0,3.64,2.87c3.38.36,7,.61,10.79.72,4.31.12,8.36,0,12.14-.17a26.74,26.74,0,0,0,13.17-15.41,23.85,23.85,0,0,0,1.17-7.94,24.28,24.28,0,0,0-6.53-15.24,26.27,26.27,0,0,0-13.28-7.82c-.45-1.25-1.1-2.92-2-4.83-1.5-3.19-2.26-4.79-3.09-4.87s-2.41,1.06-5,9.65C186.1,85.46,178.18,95,177.78,105,177.34,116,186.09,124.52,186.51,124.91Zm-7.13-20a20,20,0,0,1,1.83-8.42s0,0,0,0c2.71-5.85,8.13-9.83,14.39-9.83,7.31,0,13.48,5.43,15.52,12.9a20.16,20.16,0,0,1,.72,5.37c0,10.09-7.27,18.27-16.23,18.27S179.39,115,179.39,104.92Z"/><path class="cls-2" d="M209.54,123.56a12.16,12.16,0,0,0,2.74-1.37c3.78-2.54,5.45-7,4.85-7.48s-2.89,2.54-3.73,2c-1.1-.72,1.52-6.86,1.3-6.94s-.69,2.4-2,2.63-3-2.06-3.2-2.43c-1.28-1.88-1.13-3.3-1.89-3.43s-1.14,1.21-2.84,2.48a7.59,7.59,0,0,1-3.55,1.54c-3.66.19-6.72-5.93-7.1-5.68s2.31,4.16,1.61,4.78c-.15.13-.5.16-2.91-1.23-3-1.7-4-2.66-4.38-2.37-.66.5,1.44,4,1,4.34s-2.89-3.77-4.05-3.39c-1.66.54-2.52,10.81,3.1,16.24C193.27,127.88,202,128.28,209.54,123.56Z"/><path class="cls-1" d="M179,105c.49-13.11,12.75-23,24.56-22.57,10.86.42,22.43,9.68,22.75,22.57.22,9.07-5.18,17.87-13.67,22.25-3.59.2-7.46.28-11.56.16-3.63-.1-7.07-.35-10.28-.69C183.3,121.75,178.64,113.46,179,105Z"/><path class="cls-3" d="M220,113.61c-.13.42-20.83,0-32.78-15.23a38.14,38.14,0,0,1-7.36-16.94,49.63,49.63,0,0,0,11.1,17.67,47.42,47.42,0,0,0,10.72,8.08h0C211.32,112.58,220,113.34,220,113.61Z"/><path class="cls-4" d="M201.64,107.19a32.45,32.45,0,0,1-4.87-2.35,36,36,0,0,1-13.41-14.35,39.19,39.19,0,0,1-3.54-9,49.63,49.63,0,0,0,11.1,17.67A47.42,47.42,0,0,0,201.64,107.19Z"/><path class="cls-3" d="M220,113.61c0,.34-21.59-6.86-42.67,3-10.64,5-17.93,12.81-22.82,19.63a51.65,51.65,0,0,1,20.13-20.5C196.59,103.67,220,113.26,220,113.61Z"/><path class="cls-5" d="M220,113.61c0,.34-21.59-6.86-42.67,3-10.64,5-17.93,12.81-22.82,19.63a52.14,52.14,0,0,1,18.47-18.44,53.83,53.83,0,0,1,13-5.27C200,108.82,212.62,111.37,220,113.61Z"/><path class="cls-3" d="M196.43,105.69q-1.22-.06-2.45,0c-4.87-6.34-5.25-14-4.83-14.19h0c.43.17,1.62,7.6,6.86,13.76A5.26,5.26,0,0,0,196.43,105.69Z"/><path class="cls-4" d="M189.18,91.49c.43.17,1.62,7.6,6.86,13.76A20,20,0,0,1,190,96.07,18.39,18.39,0,0,1,189.18,91.49Z"/><path class="cls-3" d="M220,113.61c-.06.35-19.7,2.06-34.74-10.43a43.34,43.34,0,0,1-9.66-11.46A57.44,57.44,0,0,0,204.5,111,73.89,73.89,0,0,0,220,113.61Z"/><path class="cls-4" d="M204.5,111a44.94,44.94,0,0,1-15.43-6.09,45.86,45.86,0,0,1-13.51-13.22A57.44,57.44,0,0,0,204.5,111Z"/><path class="cls-3" d="M220,113.46c-.12.36-13.32,0-22.17-9.72a30.25,30.25,0,0,1-7.37-17,39.56,39.56,0,0,0,11.11,17.67,36.71,36.71,0,0,0,8.49,5.59C215.59,112.69,220.06,113.24,220,113.46Z"/><path class="cls-4" d="M211.23,112a37.23,37.23,0,0,1-15.92-13.58,36.16,36.16,0,0,1-4.87-11.64,39.56,39.56,0,0,0,11.11,17.67,36.71,36.71,0,0,0,8.49,5.59Z"/><path class="cls-4" d="M216.65,112.9a13.27,13.27,0,0,1-2.86-7.13,12.65,12.65,0,0,1,.28-3.79,9.21,9.21,0,0,0-.41,6.77A9,9,0,0,0,216.65,112.9Z"/><path class="cls-3" d="M218.7,113.41a12.94,12.94,0,0,1-1.09-1.11v0a12.66,12.66,0,0,1-1.24-1.69c-3-4.82-1.9-10.13-1.48-11.81a27.42,27.42,0,0,0,1.46,9.51,29.34,29.34,0,0,0,1.72,4C218.27,112.68,218.48,113.05,218.7,113.41Z"/><path class="cls-4" d="M218.05,112.27l-.44,0v0a22.78,22.78,0,0,1-2.72-13.5,27.42,27.42,0,0,0,1.46,9.51A29.34,29.34,0,0,0,218.05,112.27Z"/><path class="cls-5" d="M220,113.61c-.07-.2-7,3.09-16.85,4.05-15.7,1.52-28-4.31-28.09-4.63a73.37,73.37,0,0,0,27.23,3.59C212.92,115.93,219.74,112.95,220,113.61Z"/><path class="cls-3" d="M220,113.45c0-.41-4.7.29-10.78-.07a59.57,59.57,0,0,1-20.28-4.93,32.57,32.57,0,0,0,17.1,7C213.35,116.12,220,113.95,220,113.45Z"/><path class="cls-5" d="M220,113.61c0,.13-.65.65-1.9,1.29h0A32,32,0,0,1,201.81,118a29.11,29.11,0,0,1-8-1.77,31.8,31.8,0,0,1-9.08-5.25A45.79,45.79,0,0,0,205,116C213.65,115.95,219.86,113.24,220,113.61Z"/><path class="cls-3" d="M220,113.61a76.31,76.31,0,0,0-14.23-4.34,63.78,63.78,0,0,0-39.8,4.95,51.51,51.51,0,0,1,15.83-6.41,53.72,53.72,0,0,1,20-.4,62.36,62.36,0,0,1,10.73,2.76C217.14,111.83,219.95,113.47,220,113.61Z"/><path class="cls-3" d="M195,106.89a32.76,32.76,0,0,0-8.25,1.35c-11.49,3.46-18.74,12.91-22.82,19.63.65-1.32,1.37-2.71,2.2-4.14,3.73-6.42,9.41-13.34,17.92-16.36a31.23,31.23,0,0,1,9.93-1.7C194.3,106.08,194.64,106.49,195,106.89Z"/><path class="cls-3" d="M200.25,109.14a29.09,29.09,0,0,0,14.6,4.92c-5,.3-12.5-.34-18.34-5.64a20.46,20.46,0,0,1-1.51-1.53c.86,0,1.72,0,2.57,0A22,22,0,0,0,200.25,109.14Z"/><path class="cls-3" d="M220,113.37v0a.15.15,0,0,1,0,.07c-.1.47-2.17.81-5.14.61a32,32,0,0,0,4.84-.63,32.06,32.06,0,0,1-2.91-1.6,51.12,51.12,0,0,0-17-4.81c-.54-.05-1.09-.08-1.65-.12l-.6,0c-.4-.38-.78-.78-1.14-1.19h.15c1.22.06,2.43.17,3.62.32C210.82,107.36,219.76,112.15,220,113.37Z"/><path class="cls-5" d="M220,113.61s-.09,0-.26,0c-2.37-.1-20.3-2.77-38.43,6.38a65.55,65.55,0,0,0-22.82,19.64,55.08,55.08,0,0,1,20.12-20.51A52.69,52.69,0,0,1,185,116l0,0a56.83,56.83,0,0,1,19.74-4.09h0C213.72,111.63,219.93,113.38,220,113.61Z"/><path class="cls-3" d="M220,113.61c-.14.26-6.25-4.82-14.92-7.86a33.24,33.24,0,0,0-18.6-1.47c-7.92,1.84-13.46,6.84-16.61,10.26l.37-.46c.19-.25.41-.51.66-.8l.71-.82a34.77,34.77,0,0,1,8.63-7h0a28.82,28.82,0,0,1,8.49-3.17c13.63-2.71,25.24,5.57,29.5,9.44l0,0A7.61,7.61,0,0,1,220,113.61Z"/><path class="cls-3" d="M220,113.61c-.19.22-9.54-3.93-13.68-13.22-2-4.4-1.82-7.85-5.36-10.69-.58-.46-3.88-3.18-7.54-2.51-5.23,1-7.71,8.17-7.94,8.71.08-.53,1.65-6.64,6.46-8.77a7.81,7.81,0,0,1,1.59-.52c4.15-.92,7.61,1.57,8.33,2.1,2.12,1.56,2.94,3.41,3.7,5.66.25.74.51,1.54.79,2.39a33.61,33.61,0,0,0,1.23,3.15,30,30,0,0,0,7.42,9.9C217.76,112.32,220.06,113.5,220,113.61Z"/><path class="cls-4" d="M220,113.61a32.68,32.68,0,0,1-2.59-10.91,10.53,10.53,0,0,0-.54,3.67A11.42,11.42,0,0,0,220,113.61Z"/><path class="cls-5" d="M219.94,114.24a0,0,0,0,1,0,0,7.83,7.83,0,0,1-1.89,3.52c-2.38,2.53-6,2.46-7.14,2.38h-.18a10.73,10.73,0,0,0,5.54-2c2.56-1.91,3.48-4.69,3.7-4.58C220,113.65,220,113.88,219.94,114.24Z"/><path class="cls-6" d="M219.93,114.27a7.83,7.83,0,0,1-1.89,3.52c-2.38,2.53-6,2.46-7.14,2.38a9.44,9.44,0,0,0,5.19-1.35A9.65,9.65,0,0,0,219.93,114.27Z"/><path class="cls-6" d="M219.7,113.64c-2.37-.1-20.3-2.77-38.43,6.38a65.55,65.55,0,0,0-22.82,19.64c2.92-4.47,13.19-19,32.78-24.82A58.83,58.83,0,0,1,219.7,113.64Z"/><path class="cls-5" d="M220,113.61c0,.14-.13.4-.51.75l0,0c-2.27,2.12-11.51,7.4-22.72,7.61-14,.25-24.39-7.55-24.27-7.83A9,9,0,0,1,174,115l0,0a47.55,47.55,0,0,0,21.75,5.57C209.39,120.55,220.08,114,220,113.61Z"/><path class="cls-6" d="M219.42,114.39c-2.27,2.12-11.51,7.4-22.72,7.61-14,.25-24.39-7.55-24.27-7.83A9,9,0,0,1,174,115l0,0a44,44,0,0,0,24.8,6.09A43.5,43.5,0,0,0,219.42,114.39Z"/><path class="cls-4" d="M201.81,88.7c2.12,1.56,2.94,3.41,3.7,5.66A12,12,0,0,0,204.17,92a12.39,12.39,0,0,0-6.08-4.89,10.43,10.43,0,0,0-6.2,0,7.81,7.81,0,0,1,1.59-.52C197.63,85.68,201.09,88.18,201.81,88.7Z"/><path class="cls-4" d="M215.57,110.54a21,21,0,0,1-7.86-9.06,27.74,27.74,0,0,1-1.41-4.72,33.61,33.61,0,0,0,1.23,3.15,30,30,0,0,0,7.42,9.9C215.17,110.07,215.39,110.32,215.57,110.54Z"/><path class="cls-4" d="M218.21,111.73c-2.87-2.29-12.6-9.45-26.23-8.79a37.35,37.35,0,0,0-11.76,2.53,28.82,28.82,0,0,1,8.49-3.17C202.35,99.58,214,107.86,218.21,111.73Z"/><path class="cls-3" d="M200.2,106c-.14.4-.27.74-.39,1s-.3.62-.36.73c-.34-.21-.78-.49-1.29-.85a16.78,16.78,0,0,1-1.58-1.21C197.8,105.75,199,105.86,200.2,106Z"/><path class="cls-5" d="M221.56,112.2c-2.58-.7-5.62-1.43-9.07-2-2.1-.36-4.36-.67-6.76-.91a63.78,63.78,0,0,0-39.8,4.95,61.9,61.9,0,0,1,11.41-4.65,63.64,63.64,0,0,1,24.42-2.16A77.24,77.24,0,0,1,221.56,112.2Z"/><path class="cls-6" d="M205.1,105.76H205a33.24,33.24,0,0,0-18.6-1.47c-7.92,1.84-13.46,6.84-16.61,10.26l.37-.46c.2-.26.42-.53.66-.8l.71-.82a29.07,29.07,0,0,1,10.07-7.1C192.74,100.72,203,104.85,205.1,105.76Z"/><path class="cls-5" d="M196.6,106.81a34.43,34.43,0,0,0-9.84,1.43C173,112.36,166,124.07,163.93,127.87a38.33,38.33,0,0,1,30-22.2l.91,0Z"/><path class="cls-6" d="M218,114.9A32,32,0,0,1,201.81,118a29.11,29.11,0,0,1-8-1.77A41.7,41.7,0,0,0,218,114.9Z"/><path class="cls-4" d="M204.79,111.9a104.25,104.25,0,0,0-11,1.8c-3.15.69-6.06,1.48-8.74,2.3A56.83,56.83,0,0,1,204.79,111.9Z"/><path class="cls-1" d="M187.27,124a27,27,0,0,0,3.47,2.73c3.22.34,6.66.58,10.28.69,4.1.12,8,0,11.56-.16a25.48,25.48,0,0,0,12.54-14.68,22.46,22.46,0,0,0,1.12-7.57c-.42-12-11.1-18.82-11.57-19.11a24.17,24.17,0,0,0-9.1-3.27,9.91,9.91,0,0,1-2.47-3c-.57-1.1-.66-1.8-1.05-1.87s-1.32.77-2.91,5a23.24,23.24,0,0,0-7.38,2.47C191.15,85.51,179.53,92,179,105,178.48,115.66,185.83,122.62,187.27,124Zm-6.79-19a19.09,19.09,0,0,1,1.74-8s0,0,0,0c2.58-5.57,7.75-9.36,13.71-9.36,7,0,12.85,5.17,14.78,12.29a19.2,19.2,0,0,1,.68,5.12c0,9.61-6.92,17.4-15.47,17.4S180.48,114.54,180.48,104.92Z"/><path class="cls-7" d="M182.23,96.88c2.58-5.57,7.75-9.36,13.71-9.36,7,0,12.85,5.17,14.78,12.29a5.27,5.27,0,0,0,.84-2.75c0-3.38-4-6-3.76-6.27s3.45,2.55,4.18,2c.45-.38-.41-1.79,0-2.09.63-.47,3.4,2.42,3.52,2.3s-1.71-3.33-5.12-5.61c-6.59-4.41-14.51-2.33-15.72-2a17.83,17.83,0,0,0-8.24,4.6A17.41,17.41,0,0,0,182.23,96.88Z"/><path class="cls-8" d="M187.27,124a27,27,0,0,0,3.47,2.73c3.22.34,6.66.58,10.28.69,4.1.12,8,0,11.56-.16a25.48,25.48,0,0,0,12.54-14.68,22.94,22.94,0,0,1-2.66,3.17c-2.71,2.68-6.5,5.08-7.33,4.31-.64-.59.83-2.75.29-3.16s-3.14,2.17-5.32,3.88a24.94,24.94,0,0,1-13.37,5A20.32,20.32,0,0,1,187.27,124Z"/><path class="cls-3" d="M211.23,112h0l-.53-.07.24.09-.33,0-.18.46.41.08-.43,0-1.09-.27-.09,0-1.16-.33c-.33-.09-.67-.2-1-.31-.76-.23-1.53-.5-2.32-.8s-1.71-.65-2.58-1-1.9-.88-2.85-1.39l-.19-.1c-.67-.35-1.34-.73-2-1.14l-.39-.25-.09,0h0l-.07-.05c-.56-.34-1.11-.71-1.66-1.1l0,0c-.64-.46-1.28-.93-1.9-1.44l-.78-.64h0l-.37-.33s0,0,0,0l-.28-.25c-.35-.32-.69-.63-1-1a33.77,33.77,0,0,1-3.28-3.63,35,35,0,0,1-3.63-5.67c-.18-.36-.36-.72-.53-1.08a40.32,40.32,0,0,1-3.2-10.19,52.91,52.91,0,0,0,4.29,8.91c.2.34.41.67.64,1,.45.72.94,1.45,1.47,2.18a2.07,2.07,0,0,0,.15.2,44.58,44.58,0,0,0,3.8,4.59q.36.39.75.78c.2.2.39.39.59.57.58.58,1.17,1.12,1.76,1.64l.52.45c.47.4,1,.79,1.43,1.17l.58.44h0l.44.33c1.09.81,2.19,1.56,3.28,2.23l.57.35c.46.28.91.54,1.36.79l.18.1h0l.1.05a3.6,3.6,0,0,0,.38.21l.07,0c1.23.67,2.44,1.26,3.62,1.79h0c.44.2.87.38,1.3.56s.94.38,1.4.56c0,0,0,0,0,0q1.14.43,2.19.78a.16.16,0,0,0,.09,0s0,.06,0,.08a1.74,1.74,0,0,1,.11.18Z"/><path class="cls-4" d="M201.64,107.18l-.1,0c-.54-.21-1-.42-1.52-.64s-1-.44-1.39-.66c-.7-.35-1.32-.69-1.86-1s-1.32-.81-1.94-1.23l-.15-.11h0l-.33-.23-.5-.36a3.16,3.16,0,0,1-.29-.22c-.38-.28-.75-.57-1.1-.86-.51-.42-1-.84-1.45-1.27a35.81,35.81,0,0,1-5.08-5.84l-.1-.15c-.66-1-1.2-1.83-1.64-2.59-.22-.38-.42-.73-.58-1s-.18-.3-.25-.44a39.16,39.16,0,0,1-3.53-9,52.91,52.91,0,0,0,4.29,8.91c.2.34.41.67.64,1,.45.72.94,1.45,1.47,2.18a2.07,2.07,0,0,0,.15.2,44.58,44.58,0,0,0,3.8,4.59q.36.39.75.78c.2.2.39.39.59.57.58.58,1.17,1.12,1.76,1.64l.52.45c.47.4,1,.79,1.43,1.17l.59.45.44.33c1.09.81,2.19,1.56,3.28,2.23l.57.35c.46.28.91.54,1.36.79Z"/><path class="cls-3" d="M211.23,112h0l-.53-.07h-.07c-1.11-.14-2.31-.26-3.57-.35l-.75,0c-.66,0-1.35-.08-2-.1-1.11,0-2.27,0-3.46,0h-.27c-.91,0-1.84.06-2.78.13h0c-1.17.07-2.36.18-3.58.34a55.09,55.09,0,0,0-5.46.92c-.4.08-.81.18-1.21.28a52.76,52.76,0,0,0-5.55,1.65l-.38.13-1.07.41-.5.2c-.86.34-1.73.72-2.59,1.12l-.09,0-.09,0c-.2.09-.4.18-.6.29a52.2,52.2,0,0,0-9.07,5.61c-.19.13-.37.27-.55.42s-.52.41-.78.62a0,0,0,0,1,0,0,65,65,0,0,0-11.72,12.63A52.77,52.77,0,0,1,169,119.38l.7-.52q.91-.66,1.89-1.29l.77-.49c.72-.45,1.47-.89,2.24-1.31l0,0,.41-.22.06,0c.84-.45,1.67-.87,2.51-1.25l.62-.28,1-.43c.6-.25,1.19-.48,1.79-.7,1.43-.54,2.85-1,4.27-1.37l.23-.06a49.59,49.59,0,0,1,5.89-1.19c.51-.08,1-.15,1.52-.2,1.08-.12,2.13-.21,3.17-.27.67,0,1.33-.06,2-.06.4,0,.79,0,1.17,0l1.22,0h.64l1.07.05c1.45.07,2.83.2,4.15.36.57.06,1.12.14,1.66.22l.6.09s0,0,0,0c.67.1,1.31.22,1.92.34l.48.09a2.4,2.4,0,0,1-.12.38s0,.06,0,.08a1.74,1.74,0,0,1,.11.18Z"/><path class="cls-5" d="M211.23,112h0l-.53-.07h-.07c-1.11-.14-2.31-.26-3.57-.35l-.75,0c-.66,0-1.35-.08-2-.1-1.11,0-2.27,0-3.46,0h-.27c-.91,0-1.84.06-2.78.13h0c-1.17.07-2.36.18-3.58.34a55.09,55.09,0,0,0-5.46.92c-.4.08-.81.18-1.21.28a52.76,52.76,0,0,0-5.55,1.65l-.38.13-1.07.41-.5.2c-.86.34-1.73.72-2.59,1.12l-.09,0-.09,0c-.2.09-.4.18-.6.29a52.2,52.2,0,0,0-9.07,5.61c-.19.13-.37.27-.55.42s-.52.41-.78.62a0,0,0,0,1,0,0,65,65,0,0,0-11.72,12.63,53,53,0,0,1,13.07-14.82l.26-.2,1.24-.91.69-.48c1-.7,2.08-1.38,3.21-2,.46-.26,1.37-.77,2.65-1.41l.55-.26a.31.31,0,0,1,.13-.06c.83-.4,1.78-.83,2.85-1.27l.49-.19.38-.15c.48-.18,1-.37,1.5-.55,1.36-.48,2.85-1,4.46-1.38l.55-.14c.27-.07.53-.14.79-.19a53.17,53.17,0,0,1,5.6-1c.86-.12,1.72-.22,2.57-.29,1-.09,2-.15,3-.18l1,0c1.1,0,2.18,0,3.24,0H203l.49,0h0c.42,0,.84,0,1.24.06q2,.14,3.9.39c.4,0,.79.1,1.18.16s.65.09,1,.15l.16,0Z"/><path class="cls-3" d="M196.43,105.69q-1.22-.06-2.45,0c-4.87-6.34-5.25-14-4.83-14.19h0c.43.17,1.62,7.6,6.86,13.76A5.26,5.26,0,0,0,196.43,105.69Z"/><path class="cls-4" d="M189.18,91.48c.43.17,1.62,7.6,6.86,13.76A20,20,0,0,1,190,96.07,18.39,18.39,0,0,1,189.18,91.48Z"/><path class="cls-3" d="M210.08,113.21l-.06.14c.12,0,.25.06.37.09l-.4,0-.61,0-.93-.14c-1.21-.19-2.48-.43-3.79-.72l-1.68-.42-.43-.12h0l-1.34-.38-.69-.22c-.68-.21-1.36-.44-2-.7s-1.59-.6-2.4-.95c-1.16-.49-2.34-1.05-3.5-1.67-.5-.26-1-.53-1.48-.82l-.09,0c-.27-.15-.54-.31-.81-.49s-.29-.17-.43-.26l-.58-.37c-.88-.57-1.75-1.17-2.6-1.84l-.43-.32a1.68,1.68,0,0,1-.21-.18,8.19,8.19,0,0,1-.67-.53l0,0a41.11,41.11,0,0,1-4.79-4.69c-.32-.36-.62-.72-.9-1.07a43.61,43.61,0,0,1-4-5.71q.27.34.57.69a58.17,58.17,0,0,0,11,10.25l1,.68a2.19,2.19,0,0,0,.25.17l.47.32h0l.1.07q.77.5,1.53,1c.5.31,1,.6,1.5.89s1.14.63,1.71.93l.78.4c.44.23.88.44,1.31.65l1,.44h0l.93.41.92.39,1.82.72h0l1.42.5h0l1.59.52h0l1,.31,1.79.5,1.41.35h0l1.49.34.09,0,1.11.21.41.08-.43,0C210.29,112.74,210.19,113,210.08,113.21Z"/><path class="cls-4" d="M204.5,111a44.94,44.94,0,0,1-15.43-6.09,45.86,45.86,0,0,1-13.51-13.22A57.44,57.44,0,0,0,204.5,111Z"/><path class="cls-3" d="M211.23,112h0l-.53-.07-.07,0c-.65-.22-1.31-.46-2-.74s-1.55-.66-2.33-1.06-1.33-.7-2-1.09a26,26,0,0,1-2.35-1.57h0l-.27-.2-.12-.09-.08-.06c-.43-.33-.85-.67-1.27-1a.08.08,0,0,1,0,0,25.52,25.52,0,0,1-2.13-2l-.2-.22-.09-.1-.5-.57c-.34-.4-.67-.81-1-1.23a30.25,30.25,0,0,1-5.59-13.48c0-.17-.05-.34-.08-.5s0-.2,0-.3c0-.27-.06-.53-.09-.77l.24.72.08.23c0,.15.1.29.16.44a40,40,0,0,0,8.32,14h0c.41.45.85.9,1.32,1.34.32.31.64.61,1,.91l.08.07h0l.3.25a31.3,31.3,0,0,0,2.51,2c.65.46,1.29.89,1.93,1.28l.23.14c.23.15.46.28.69.41.7.41,1.39.78,2.06,1.11l.68.34,1,.47.15.06-.15,0c0,.11-.06.22-.1.33a2.4,2.4,0,0,1-.12.38s0,.06,0,.08a1.74,1.74,0,0,1,.11.18Z"/><path class="cls-4" d="M211.23,112h0l-.54-.25-.87-.42c-.56-.29-1.19-.62-1.85-1l-.8-.47-.69-.43-.13-.09c-.69-.43-1.41-.92-2.14-1.47l-.27-.2-.13-.1c-.51-.39-1-.8-1.55-1.25-.71-.6-1.43-1.26-2.15-2l-.28-.28h0l-.71-.76c-.38-.41-.76-.84-1.13-1.28a34.91,34.91,0,0,1-2.64-3.58,36.19,36.19,0,0,1-4.51-10.18l-.12-.47c0-.09,0-.17-.06-.25-.07-.26-.13-.5-.18-.74l.24.72.08.23c0,.15.1.29.16.44a40,40,0,0,0,8.32,14h0c.41.45.85.9,1.32,1.34.32.31.64.61,1,.91l.08.07h0l.3.25a31.3,31.3,0,0,0,2.51,2c.65.46,1.29.89,1.93,1.28l.23.14c.23.15.46.28.69.41.7.41,1.39.78,2.06,1.11l.68.34.16.26.28.47.27.44.06.11a1.74,1.74,0,0,1,.11.18Z"/><path class="cls-5" d="M208.58,115.91c-.25.38-.52.75-.8,1.1-.88.16-1.8.31-2.75.43h0c-.62.08-1.25.16-1.9.22-1,.1-2,.16-3,.2a56.92,56.92,0,0,1-12-.78c-.73-.12-1.44-.25-2.12-.4s-1.16-.24-1.71-.38-1.14-.28-1.67-.42c-.77-.21-1.5-.42-2.16-.63l-.68-.22-.67-.23c-.57-.19-1.09-.38-1.54-.56l-1.35-.56-.14-.07-.64-.31c-.27-.14-.42-.24-.42-.27s.21,0,.6.14l.74.24.15,0,1.68.5,1.3.37.49.13c.48.13,1,.26,1.55.38l.53.13c1.11.26,2.34.51,3.67.75l.13,0,1.8.29h0c.84.12,1.71.23,2.62.33,1.51.16,3.1.29,4.77.35.3,0,.6,0,.91,0,2,.06,4.09,0,6.28-.11S206.67,116.22,208.58,115.91Z"/><path class="cls-3" d="M210,113.46c-.08.17-.16.34-.25.5a13.81,13.81,0,0,1-.94,1.63q-1.35,0-2.76-.12a29.26,29.26,0,0,1-6.48-1.32,22.9,22.9,0,0,1-2.16-.78c-.23-.08-.45-.18-.67-.27h0c-.21-.1-.43-.19-.63-.3h0c-.68-.29-1.32-.61-1.92-.94-.43-.23-.85-.46-1.25-.7s-1-.63-1.52-1c-1-.63-1.77-1.23-2.44-1.76,1.21.52,2.53,1,4,1.56.82.3,1.68.59,2.57.86.73.23,1.48.45,2.26.65h0c.88.24,1.78.46,2.72.65,0,0,0,0,0,0,.27.07.53.12.81.17h0c.52.11,1,.21,1.58.3s1,.17,1.53.24c1.1.17,2.23.3,3.39.4l1.43.1h.17Z"/><path class="cls-5" d="M195.61,114.91c-1,.24-2.12.51-3.2.81-.56-.24-1.1-.49-1.61-.74-.27-.13-.52-.27-.78-.39l-.4-.23c-.79-.44-1.51-.88-2.15-1.3-.35-.23-.67-.45-1-.67-.47-.33-.89-.65-1.25-.93l-.53-.43.76.37c.58.27,1.18.54,1.81.8.45.2.91.39,1.39.58q1.37.54,2.88,1l.72.23h0l.9.26C194,114.52,194.78,114.73,195.61,114.91Z"/><path class="cls-5" d="M208.58,115.91c-.25.38-.52.75-.8,1.1l-.21.26c-.2.25-.41.49-.62.73a31.35,31.35,0,0,1-5.14,0c-.58,0-1.14-.1-1.69-.18a27.7,27.7,0,0,1-5-1.15c-.44-.13-.86-.28-1.27-.43.68.16,1.4.32,2.18.46,2,.06,4.09,0,6.28-.11S206.67,116.22,208.58,115.91Z"/><path class="cls-3" d="M211.07,110.5l.15.06-.15,0-.86-.23c-1.16-.31-2.42-.6-3.75-.87l-.61-.13h-.12L204.3,109c-1.58-.27-3.25-.5-5-.66,0,0,0,0-.07,0-.8-.08-1.62-.14-2.46-.19h0l-.53,0c-.39,0-.78,0-1.18,0h0c-.81,0-1.63,0-2.47,0a59.71,59.71,0,0,0-6.54.4h0l-.5,0c-1,.12-1.93.26-2.87.43s-1.85.33-2.74.53l-.64.14-1.09.25c-1.8.45-3.48.95-5.07,1.48h0l-.67.23a0,0,0,0,0,0,0h0a66.51,66.51,0,0,0-6.45,2.62,52.53,52.53,0,0,1,7.75-3.91l.16-.07h0c.38-.15.75-.3,1.14-.44h0c1-.36,2-.7,3-1,.55-.16,1.11-.32,1.69-.47s1.38-.35,2.09-.51,1.51-.31,2.26-.43c1.45-.25,2.88-.42,4.29-.53.63-.06,1.25-.1,1.87-.13s1.27,0,1.89,0h0c.55,0,1.08,0,1.62,0l1.14,0,1.66.1h.12l.92.07h0l.67.07,1.52.17c.68.09,1.35.18,2,.29l.19,0,.25.05c.68.11,1.34.23,2,.37q1.64.33,3.12.72c.7.41,1.39.78,2.06,1.11l1.85.27A5.45,5.45,0,0,1,211.07,110.5Z"/><path class="cls-3" d="M195,106.89a32.76,32.76,0,0,0-8.25,1.35c-11.49,3.46-18.74,12.91-22.82,19.63.65-1.32,1.37-2.71,2.2-4.14,3.73-6.42,9.41-13.34,17.92-16.36a31.23,31.23,0,0,1,9.93-1.7C194.3,106.08,194.64,106.49,195,106.89Z"/><path class="cls-3" d="M210,113.42l-.61,0,.59.07c-.08.17-.16.34-.25.5a27,27,0,0,1-3.53-.58c-.6-.14-1.2-.3-1.8-.5-.29-.09-.58-.18-.87-.29s-.71-.26-1.06-.41c0,0,0,0,0,0l-.34-.15h0l-.9-.42-.42-.22c-.43-.22-.86-.47-1.28-.73s-1-.63-1.46-1-.64-.5-1-.76h0l-.56-.49-.29-.28c-.15-.13-.29-.28-.43-.42s-.42-.43-.62-.65l-.17-.18,1.71,0,.83,0h0l.27.26q.6.57,1.26,1.11l.12.1c.33.27.67.54,1,.79s.54.38.82.55.52.34.79.49h0l.73.42h0l.13.07c.5.27,1,.52,1.5.74s.71.32,1.07.46,1,.4,1.5.57c.9.31,1.78.56,2.64.77.19,0,.38.1.57.13s.25.06.37.09Z"/><path class="cls-3" d="M206.39,108c1.77.29,3.46.64,5,1,0,.18-.07.35-.11.53-1.44-.5-3-1-4.7-1.41-.46-.12-.94-.23-1.42-.33l-1.41-.28c-.66-.12-1.35-.23-2-.32h-.09c-.61-.09-1.22-.16-1.85-.21s-1.09-.09-1.64-.12l-.6,0c-.4-.39-.78-.78-1.14-1.19h.15c.69,0,1.37.08,2,.15l.9.1c.21,0,.42,0,.62.06h0q1,.14,2,.3c.75.13,1.49.28,2.22.44C205.11,107.21,205.75,107.64,206.39,108Z"/><path class="cls-3" d="M213.13,109.38l.09.08-.28-.16Z"/><path class="cls-5" d="M210.82,112.52l-.43,0c-.1.24-.2.48-.31.71h-.63l-1,0-.67,0-1.59.1c-2.06.14-4.3.38-6.65.77-1.28.2-2.59.46-3.93.76-1,.24-2.12.51-3.2.81-.7.19-1.4.4-2.11.64s-1.44.46-2.17.72q-1.71.62-3.45,1.35l-.93.41-.52.23-.92.44-.09.05c-.32.14-.63.3-1,.46a65.46,65.46,0,0,0-22.82,19.64,55,55,0,0,1,20.12-20.51c.4-.23.79-.45,1.19-.66.24-.14.49-.27.74-.39a2.79,2.79,0,0,1,.34-.18l.3-.15c.71-.37,1.41-.7,2.11-1q.52-.24,1-.45c.23-.11.47-.2.7-.3h0l.69-.27c1.3-.52,2.6-1,3.88-1.36l1-.29,1-.27c1.52-.4,3-.74,4.5-1h0q2.25-.41,4.38-.63s0,0,0,0l.28,0,1.36-.12h0l.43,0h0c.76,0,1.51-.08,2.24-.1h.52c.82,0,1.62,0,2.39,0h.35c.89,0,1.74.05,2.54.1l-.18.46Z"/><path class="cls-3" d="M211.71,107.31a3.42,3.42,0,0,0,.33.33l-.35-.18c0,.18,0,.36-.07.53-.35-.35-.7-.71-1-1.1a39.37,39.37,0,0,0-10-3.35c.32.31.64.61,1,.91l.08.07h0a30.75,30.75,0,0,1,3.4,1.21l-1.09-.37-.3-.09-.63-.19-.09,0-1-.28-.46-.12-.74-.18-.66-.15c-.68-.15-1.37-.28-2.07-.38l-.35-.06-.74-.1-.68-.08-.71-.06-.71,0q-.3,0-.6,0a8.17,8.17,0,0,0-.86,0c-.4,0-.81,0-1.21,0h0c-.6,0-1.2,0-1.81.11q-.33,0-.66.06l-.82.1h0l-1.17.19-1.11.23-.12,0c-.44.1-.87.21-1.29.34l-.34.09-1,.31a5.31,5.31,0,0,0-.56.2c-.3.1-.58.21-.87.33a4.87,4.87,0,0,0-.53.21c-.32.13-.64.27-1,.42s-.7.34-1,.51-.85.44-1.26.68l-.65.38c-.58.35-1.13.7-1.65,1.07l-.94.67a4.62,4.62,0,0,0-.42.32h0c-.4.3-.78.61-1.14.9h0l-.74.64h0a41.49,41.49,0,0,0-3.25,3.18l.36-.46c.2-.25.42-.52.66-.8l.71-.81L172,112c.12-.14.26-.28.4-.42s.34-.36.53-.54.5-.5.77-.75a34.25,34.25,0,0,1,4.11-3.33c.51-.36,1.05-.71,1.62-1,.26-.16.52-.32.79-.47h0a28.58,28.58,0,0,1,5-2.25l.91-.29c.32-.1.65-.19,1-.27.51-.14,1-.26,1.57-.37s1.16-.21,1.74-.28c.39-.06.78-.1,1.16-.13l.83-.06.41,0,.68,0a1,1,0,0,1,.25,0,22.32,22.32,0,0,1,2.46.07c.57,0,1.15.1,1.71.17s.87.12,1.29.2h0a35.66,35.66,0,0,1,10.36,3.6c.47.23.92.48,1.35.73A10.61,10.61,0,0,0,211.71,107.31Z"/><path class="cls-3" d="M213.13,109.38l.09.08-.28-.16Z"/><path class="cls-3" d="M211.75,107l-.78-.45a10.61,10.61,0,0,0,.74.78,3.42,3.42,0,0,0,.33.33l-.35-.18c0,.18,0,.36-.07.53-.35-.35-.7-.71-1-1.1s-.63-.71-1-1.09a24.35,24.35,0,0,1-3.34-5.41c-2-4.4-1.82-7.85-5.37-10.7-.58-.46-3.87-3.18-7.54-2.51a6.9,6.9,0,0,0-2.44,1l-.12.07-.15.11a14.19,14.19,0,0,0-4.29,5.38l-.45,1c-.27.63-.43,1.08-.48,1.19a10.78,10.78,0,0,1,.38-1.34c.11-.31.24-.65.4-1a12.7,12.7,0,0,1,4.36-5.68l.11-.08.08,0a8.19,8.19,0,0,1,1.09-.6h0a8,8,0,0,1,1.59-.52,9.14,9.14,0,0,1,4.94.32,12.24,12.24,0,0,1,3.39,1.78c2.12,1.55,2.93,3.41,3.7,5.66.26.74.51,1.54.79,2.39s.72,2,1.24,3.15a28.69,28.69,0,0,0,4.25,6.65c.27.33.55.65.83,1Z"/><path class="cls-6" d="M210.39,112.5c-.1.24-.2.48-.31.71h-.63l-1,0-.67,0-1.59.1c-2.06.14-4.3.38-6.65.77-1.28.2-2.59.46-3.93.76-1,.24-2.12.51-3.2.81-.7.19-1.4.4-2.11.64s-1.44.46-2.17.72q-1.71.62-3.45,1.35l-.93.41-.52.23-.92.44-.09.05c-.32.14-.63.3-1,.46a65.46,65.46,0,0,0-22.82,19.64A61.87,61.87,0,0,1,181,119l.67-.34.15-.07a3.17,3.17,0,0,1,.41-.21h0q.82-.42,1.68-.81c.68-.31,1.37-.61,2.09-.9.54-.22,1.09-.44,1.66-.65h0q1.52-.57,3.12-1l.43-.14c.66-.2,1.31-.38,2-.55,1.43-.37,2.82-.68,4.19-.92,1.89-.35,3.72-.58,5.48-.73l.66,0,1.14-.06c.73,0,1.45-.07,2.15-.08C208.06,112.42,209.26,112.44,210.39,112.5Z"/><path class="cls-5" d="M195.8,120.54a45.77,45.77,0,0,0,9.6-1,16.51,16.51,0,0,1-2.81,1.92,38.19,38.19,0,0,1-5.88.57,39.49,39.49,0,0,1-8.49-.8,41.89,41.89,0,0,1-5.91-1.68l-.16-.06c-.4-.14-.78-.29-1.15-.44s-.84-.34-1.24-.52c-1.18-.51-2.24-1-3.16-1.54l-1-.56-1-.62-.49-.32-.15-.1-.5-.34-.48-.36c-.34-.27-.52-.44-.5-.48s.24.07.67.3l.58.3.33.17,0,0,.19.1.17.09.67.33,1.2.58,1.11.5c1,.44,2.18.9,3.46,1.35l.49.17.9.3h0c.49.16,1,.31,1.51.45s1.25.34,1.9.5A44.22,44.22,0,0,0,195.8,120.54Z"/><path class="cls-6" d="M204.25,120.39a13.5,13.5,0,0,1-1.66,1,38.19,38.19,0,0,1-5.88.57,39.49,39.49,0,0,1-8.49-.8,41.89,41.89,0,0,1-5.91-1.68l-.16-.06c-.4-.14-.78-.29-1.15-.44s-.84-.34-1.24-.52c-1.18-.51-2.24-1-3.16-1.54l-1-.56-1-.62-.49-.32-.15-.1-.5-.34-.48-.36c-.34-.27-.52-.44-.5-.48s.24.07.67.3l.58.3.33.17,0,0,.19.11.15.09.63.35c.35.2.73.4,1.13.61l1.06.53c1,.48,2.1,1,3.3,1.44l1.07.41.25.09c.46.16.93.32,1.41.47,1,.32,2.05.62,3.16.88a42.39,42.39,0,0,0,17.86.44Z"/><path class="cls-4" d="M205.51,94.36A11.49,11.49,0,0,0,204.17,92a12.37,12.37,0,0,0-6.08-4.89,9.71,9.71,0,0,0-3-.47H195a10.85,10.85,0,0,0-2.78.4l-.3.07a8,8,0,0,1,1.59-.52,9.14,9.14,0,0,1,4.94.32,12.24,12.24,0,0,1,3.39,1.78C203.93,90.25,204.74,92.11,205.51,94.36Z"/><path class="cls-4" d="M211.79,106.55c.27.33.55.65.83,1l-.87-.53-.78-.45a18.31,18.31,0,0,1-3.26-5.06,28.49,28.49,0,0,1-1.41-4.72c.34,1,.72,2,1.24,3.15A28.69,28.69,0,0,0,211.79,106.55Z"/><path class="cls-4" d="M211.71,107.31a3.42,3.42,0,0,0,.33.33l-.35-.18-1.12-.57a39.37,39.37,0,0,0-10-3.35c-.49-.1-1-.18-1.49-.26s-1.23-.16-1.86-.22-1.33-.11-2-.13c-.31,0-.63,0-1,0h-.54l-1.55,0H192l-.49,0a31.73,31.73,0,0,0-3.36.36c-.39,0-.77.12-1.14.19l-1.06.22a37.16,37.16,0,0,0-5.7,1.72,28.58,28.58,0,0,1,5-2.25l.91-.29c.32-.1.65-.19,1-.27.51-.14,1-.26,1.57-.37s1.16-.21,1.74-.28c.39-.06.78-.1,1.16-.13l.83-.06.41,0,.68,0a1,1,0,0,1,.25,0,22.32,22.32,0,0,1,2.46.07c.57,0,1.15.1,1.71.17s.87.12,1.29.2h0a35.66,35.66,0,0,1,10.36,3.6c.47.23.92.48,1.35.73A10.61,10.61,0,0,0,211.71,107.31Z"/><path class="cls-3" d="M200.2,106c-.14.4-.27.74-.39,1s-.3.62-.36.73c-.34-.21-.78-.49-1.29-.85a16.78,16.78,0,0,1-1.58-1.21C197.8,105.75,199,105.86,200.2,106Z"/><path class="cls-5" d="M211.43,109.05c0,.18-.07.35-.11.53l0,.17c-1.22-.4-2.54-.8-4-1.17.7.41,1.39.78,2.06,1.11-1-.13-2-.25-3-.36l-.51,0h-.09L204.3,109c-1.58-.27-3.25-.5-5-.66,0,0,0,0-.07,0-.8-.08-1.62-.14-2.46-.19h0l-.53,0c-.39,0-.78,0-1.18,0h0c-.81,0-1.63,0-2.47,0a59.71,59.71,0,0,0-6.54.4h0l-.5,0c-1,.12-1.93.26-2.87.43s-1.85.33-2.74.53l-.64.14-1.09.25c-1.8.45-3.48.95-5.07,1.48h0l-.67.23a0,0,0,0,0,0,0h0a66.51,66.51,0,0,0-6.45,2.62,62.15,62.15,0,0,1,7-3.16l.07,0h0l.85-.32h0c1.12-.39,2.28-.78,3.49-1.13l.73-.21q.86-.24,1.71-.45c.46-.12.93-.23,1.39-.33,1.43-.32,2.85-.59,4.25-.8q2.84-.43,5.57-.58c.22,0,.43,0,.65,0h.17l1.1,0,1.57,0h.69c.65,0,1.29,0,1.93,0,.25,0,.49,0,.74,0s.48,0,.71,0c.39,0,.78,0,1.16.07.69,0,1.38.1,2,.17l.17,0,.2,0c.61.06,1.2.13,1.79.21l1.28.18,1.19.19C208.16,108.32,209.85,108.67,211.43,109.05Z"/><path class="cls-6" d="M205.05,105.74l-1.09-.37-.3-.09-.63-.19-.09,0-1-.28-.46-.12-.74-.18-.66-.15c-.68-.15-1.37-.28-2.07-.38l-.35-.06-.74-.1-.68-.08-.71-.06-.71,0q-.3,0-.6,0c-.29,0-.57,0-.86,0s-.81,0-1.21,0h0c-.6,0-1.2,0-1.81.11q-.33,0-.66.06l-.82.1h0l-1.17.19-1.11.23-.12,0c-.44.1-.87.21-1.29.34l-.34.09-1,.31a5.31,5.31,0,0,0-.56.2,9.15,9.15,0,0,0-.87.33,4.87,4.87,0,0,0-.53.21c-.33.13-.64.27-1,.42s-.7.33-1,.51-.85.44-1.26.68l-.65.38c-.58.35-1.13.7-1.65,1.07-.32.22-.64.44-.94.67a4.62,4.62,0,0,0-.42.32h0c-.4.3-.78.61-1.14.9h0l-.74.64h0a41.49,41.49,0,0,0-3.25,3.18l.36-.46c.2-.25.42-.52.66-.8l.71-.81L172,112l.43-.43a0,0,0,0,1,0,0L173,111h0l.85-.79h0a28.45,28.45,0,0,1,7.8-4.88,26.51,26.51,0,0,1,4.49-1.44c.37-.09.73-.16,1.09-.23s.77-.14,1.15-.19a26.86,26.86,0,0,1,3.39-.28s0,0,0,0a29,29,0,0,1,4,.15h0c.67.06,1.31.15,1.92.25s1.42.26,2.07.41h0c.66.15,1.27.31,1.83.47h0A30.75,30.75,0,0,1,205.05,105.74Z"/><path class="cls-5" d="M196.6,106.81a34.43,34.43,0,0,0-9.84,1.43C173,112.36,166,124.07,163.93,127.87a38.33,38.33,0,0,1,30-22.2l.91,0Z"/><path class="cls-6" d="M207.57,117.27c-.2.25-.41.49-.62.73a31.35,31.35,0,0,1-5.14,0c-.58,0-1.14-.1-1.69-.18a27.7,27.7,0,0,1-5-1.15c-.44-.13-.86-.28-1.27-.43.68.16,1.4.32,2.18.46a41.92,41.92,0,0,0,7.93.72l1.11,0h0C205.9,117.41,206.75,117.35,207.57,117.27Z"/><path class="cls-4" d="M204.79,111.9a104.25,104.25,0,0,0-11,1.8c-3.15.69-6.06,1.48-8.74,2.3A56.83,56.83,0,0,1,204.79,111.9Z"/><line class="cls-9" x1="202.65" y1="72.21" x2="202.65"/></svg>