<svg id="_4" data-name="4" xmlns="http://www.w3.org/2000/svg" viewBox="0 0 599.35 768"><defs><style>.cls-1,.cls-2,.cls-3,.cls-4{fill:#d8ecef;}.cls-1{opacity:0.5;}.cls-2{opacity:0.23;}.cls-4{opacity:0.61;}.cls-5{fill:none;stroke:#f4dca6;stroke-miterlimit:10;stroke-width:0.5px;}</style></defs><title>feature-image4</title><path class="cls-1" d="M97.95,61.46c-.4-10-8.3-19.49-19.75-23.05-2.53-8.58-4.11-9.71-4.94-9.63s-1.58,1.67-3.08,4.85c-.9,1.91-1.55,3.57-2,4.82a26.21,26.21,0,0,0-13.25,7.8,24.22,24.22,0,0,0-6.51,15.21,23.8,23.8,0,0,0,1.17,7.92A26.68,26.68,0,0,0,62.72,84.75c3.77.21,7.81.3,12.11.17,3.8-.11,7.4-.36,10.77-.72a28.29,28.29,0,0,0,3.63-2.86C89.66,80.95,98.39,72.45,97.95,61.46ZM80.15,79.62C71.2,79.62,64,71.46,64,61.39A20.11,20.11,0,0,1,64.67,56c2-7.46,8.19-12.88,15.48-12.88,6.25,0,11.66,4,14.36,9.81,0,0,0,0,0,0a20,20,0,0,1,1.82,8.4C96.34,71.46,89.09,79.62,80.15,79.62Z"/><path class="cls-2" d="M66.26,80a12.13,12.13,0,0,1-2.73-1.37c-3.77-2.53-5.44-7-4.84-7.46s2.89,2.53,3.72,2c1.1-.72-1.51-6.85-1.3-6.93s.69,2.39,2,2.63,2.95-2.06,3.2-2.43c1.27-1.88,1.13-3.29,1.89-3.42S69.33,64.2,71,65.47A7.57,7.57,0,0,0,74.57,67c3.65.19,6.71-5.91,7.08-5.67S79.34,65.5,80,66.11c.15.13.5.16,2.91-1.23,2.95-1.7,4-2.65,4.37-2.36.66.5-1.44,4-1,4.33s2.88-3.76,4-3.38C92,64,92.9,74.25,87.28,79.68,82.49,84.3,73.74,84.7,66.26,80Z"/><path class="cls-1" d="M96.78,61.45c-.49-13.08-12.72-23-24.5-22.52-10.84.42-22.38,9.66-22.7,22.52-.22,9,5.17,17.83,13.64,22.2,3.59.2,7.44.28,11.53.16,3.62-.1,7.05-.35,10.26-.69C92.44,78.18,97.09,69.91,96.78,61.45Z"/><path class="cls-1" d="M96.78,61.45C96.2,48.51,84.6,42,84,41.69a23.19,23.19,0,0,0-7.36-2.46c-1.58-4.24-2.42-5.09-2.9-5s-.48.77-1,1.87a9.89,9.89,0,0,1-2.47,3,24.12,24.12,0,0,0-9.08,3.26c-.47.29-11.13,7.06-11.55,19.07A22.41,22.41,0,0,0,50.7,69,25.42,25.42,0,0,0,63.21,83.65c3.59.2,7.44.28,11.54.16,3.62-.1,7.05-.35,10.26-.69a27,27,0,0,0,3.46-2.73C89.91,79.05,97.25,72.11,96.78,61.45Zm-17,17.31c-8.53,0-15.43-7.77-15.43-17.37a19.16,19.16,0,0,1,.68-5.1C67,49.19,72.88,44,79.82,44c6,0,11.11,3.79,13.68,9.34,0,0,0,0,0,0a19,19,0,0,1,1.74,8C95.25,71,88.34,78.76,79.82,78.76Z"/><path class="cls-3" d="M93.51,53.37C90.93,47.81,85.77,44,79.82,44,72.88,44,67,49.19,65.07,56.29a5.26,5.26,0,0,1-.84-2.75c0-3.37,4-6,3.75-6.25s-3.45,2.55-4.17,1.95c-.45-.38.41-1.78,0-2.08-.63-.47-3.39,2.42-3.51,2.29s1.7-3.32,5.1-5.6c6.57-4.4,14.48-2.33,15.68-2a17.79,17.79,0,0,1,8.22,4.59A17.37,17.37,0,0,1,93.51,53.37Z"/><path class="cls-4" d="M88.47,80.4A27,27,0,0,1,85,83.12c-3.21.34-6.64.58-10.26.69-4.1.12-7.95,0-11.54-.16A25.42,25.42,0,0,1,50.7,69a22.89,22.89,0,0,0,2.65,3.17c2.7,2.67,6.49,5.07,7.31,4.3.64-.59-.83-2.75-.29-3.15s3.13,2.16,5.31,3.87a24.88,24.88,0,0,0,13.34,5A20.28,20.28,0,0,0,88.47,80.4Z"/><line class="cls-5" x1="73.18" y1="33.18" x2="73.18"/></svg>