<svg id="_5" data-name="5" xmlns="http://www.w3.org/2000/svg" viewBox="0 0 599.35 768"><defs><style>.cls-1,.cls-2,.cls-7,.cls-8{fill:#d8ecef;}.cls-1{opacity:0.5;}.cls-2{opacity:0.23;}.cls-3{fill:#ccdd83;}.cls-4{fill:#becc69;}.cls-5{fill:#dfe8ac;}.cls-6{fill:#aeb755;}.cls-8{opacity:0.61;}.cls-9{fill:none;stroke:#f4dca6;stroke-miterlimit:10;stroke-width:0.5px;}</style></defs><title>feature-image5</title><path class="cls-1" d="M95.61,156.57c-.61-15.28-12.67-29.74-30.15-35.18-3.87-13.09-6.27-14.81-7.54-14.7s-2.41,2.54-4.7,7.41c-1.37,2.91-2.36,5.45-3.05,7.36A40,40,0,0,0,30,133.36c-2.18,2.41-9.49,10.75-9.94,23.21a36.32,36.32,0,0,0,1.78,12.09,40.72,40.72,0,0,0,20,23.46c5.75.33,11.92.45,18.48.26,5.79-.17,11.29-.56,16.44-1.1a43.17,43.17,0,0,0,5.54-4.37C83,186.31,96.29,173.35,95.61,156.57ZM68.46,184.29c-13.66,0-24.72-12.45-24.72-27.82a30.69,30.69,0,0,1,1.09-8.18c3.1-11.38,12.5-19.65,23.63-19.65,9.53,0,17.79,6.07,21.92,15,0,0,0,0,0,0a30.51,30.51,0,0,1,2.78,12.82C93.17,171.84,82.1,184.29,68.46,184.29Z"/><path class="cls-2" d="M47.26,184.85a18.51,18.51,0,0,1-4.17-2.09c-5.75-3.86-8.29-10.69-7.38-11.39s4.4,3.86,5.67,3c1.68-1.1-2.31-10.45-2-10.57s1,3.65,3,4,4.5-3.14,4.88-3.71c1.94-2.87,1.72-5,2.88-5.22s1.73,1.84,4.32,3.78c.56.42,3.07,2.22,5.4,2.34,5.57.28,10.24-9,10.81-8.64s-3.51,6.34-2.46,7.27c.22.2.77.25,4.44-1.87,4.5-2.59,6.07-4,6.66-3.6,1,.76-2.2,6.14-1.49,6.6s4.4-5.74,6.17-5.16c2.53.83,3.84,16.46-4.73,24.73C72,191.44,58.67,192,47.26,184.85Z"/><path class="cls-1" d="M93.83,156.56c-.74-20-19.42-35.07-37.4-34.36-16.54.65-34.16,14.74-34.63,34.36-.34,13.81,7.89,27.2,20.81,33.87,5.47.31,11.36.42,17.6.24,5.53-.16,10.76-.53,15.66-1C87.21,182.09,94.31,169.47,93.83,156.56Z"/><path class="cls-3" d="M46.11,157.3a1.31,1.31,0,0,1-.07.58c-.93,2.75-7.48,1.19-12.3,5.79a12.23,12.23,0,0,0-2.55,3.48l-2.7.73-.39.1-1.26.34a16.05,16.05,0,0,1,4.84-5.88,14.49,14.49,0,0,1,3-1.68c4.66-2,9.13-1.39,9.86-3.71.37-1.17-.59-1.85-1.52-3.61a12,12,0,0,1-.71-1.68c-2-5.87,1.26-11.75,1.46-11.7s-2.82,5.92-.53,12a14.82,14.82,0,0,0,2.18,3.76A3,3,0,0,1,46.11,157.3Z"/><path class="cls-4" d="M46.11,157.3a1.31,1.31,0,0,1-.07.58c-.93,2.75-7.48,1.19-12.3,5.79a12.23,12.23,0,0,0-2.55,3.48l-2.7.73a15,15,0,0,1,4.27-5,18.11,18.11,0,0,1,5.8-2.74c2.71-.71,4-.32,5.82-1.4A6.82,6.82,0,0,0,46.11,157.3Z"/><path class="cls-5" d="M34.67,160.76a18.92,18.92,0,0,0-2.52,2,20,20,0,0,0-4,5.25l-1.26.34a16.05,16.05,0,0,1,4.84-5.88A14.49,14.49,0,0,1,34.67,160.76Z"/><path class="cls-5" d="M45.41,155.79a13.06,13.06,0,0,1-2.4-2.35,12,12,0,0,1-.71-1.68c-2-5.87,1.26-11.75,1.46-11.7s-2.82,5.92-.53,12A14.82,14.82,0,0,0,45.41,155.79Z"/><path class="cls-3" d="M34.69,179.5l-1.41-.71-.49-.24-.36-.18c1.9-2.12,8.17-9.63,8.17-20.16v0c0-.41,0-.84,0-1.26a27.43,27.43,0,0,0-2.16-9.38,24.87,24.87,0,0,1,3.9,10.76.5.5,0,0,1,0,.12C43.55,169.87,36,178.1,34.69,179.5Z"/><path class="cls-5" d="M39.77,168.1a45.28,45.28,0,0,1-6.49,10.69l-.49-.24-.36-.18c1.9-2.12,8.17-9.63,8.17-20.16a11.15,11.15,0,0,1,.53,1.92C41.58,162.67,41.07,165,39.77,168.1Z"/><path class="cls-4" d="M34.69,179.5l-1.9-1a18.87,18.87,0,0,0,4.48-4c2.72-3.35,3.51-6.73,4.19-9.6a32.23,32.23,0,0,0,.85-6.65.5.5,0,0,1,0,.12C43.55,169.87,36,178.1,34.69,179.5Z"/><path class="cls-5" d="M85.83,156.21a23.35,23.35,0,0,0-14.9,4.25,20.42,20.42,0,0,0-4.16,4.15c0-.32,0-.71,0-1.15a18.9,18.9,0,0,1,10.36-7.31A18,18,0,0,1,85.83,156.21Z"/><path class="cls-3" d="M78,185.31c-2.53,3-7.08,3.26-10.13,2.37-6-1.75-7.76-8.3-8-9.23a15.07,15.07,0,0,1,1.34-10.74,19.42,19.42,0,0,1,1.12-1.92c.39-.58.69-1,.81-1.11-1.49-3.87-2.68-9-.3-12.77,2.24-3.59,5.85-3.15,6.94-5.84.93-2.32-.67-5.31-3.1-8.26a68.1,68.1,0,0,0-6.46-6.57A52.58,52.58,0,0,1,55.75,127a2.25,2.25,0,0,1-.23-.39s0,0,0,0a.19.19,0,0,1,0-.17c.53-.72,7.67,2.87,13.54,9.51.2.21.38.43.57.65l.08.1c2.73,3.22,5.63,6.69,5,10a3,3,0,0,1-.09.41c-1,3.58-5.45,3.52-7.45,7.45-1.87,3.66-.3,8.19,1.22,11.32L69,166l.52.19a15.37,15.37,0,0,1,8,6.77l.2.38c.09.18.21.4.33.67C79.15,176.35,81.06,181.65,78,185.31Z"/><path class="cls-3" d="M66.48,168.09c-.2.81-.39,1.62-.58,2.44a21.15,21.15,0,0,0-4.07-.06,19,19,0,0,0-3.28.52c-7.57,1.88-8.48,6.84-16.61,9.33,0,0-6.78,1.24-11.69-.73a2.08,2.08,0,0,1-1.32-1.76,1.83,1.83,0,0,1,.09-.72,2.65,2.65,0,0,1,.64-1,22.06,22.06,0,0,0,8.49,1.22,15.32,15.32,0,0,0,3.7-.7c6.31-2,8-7,14.52-8.81A18.4,18.4,0,0,1,66.48,168.09Z"/><path class="cls-4" d="M79.21,183.18a6.88,6.88,0,0,1-1.2,2.13c-2.53,3-7.08,3.26-10.13,2.37-6-1.75-7.76-8.3-8-9.23a12.57,12.57,0,0,1-.37-1.93,15.49,15.49,0,0,1,1.71-8.81,20.09,20.09,0,0,1,4.3,5.21c2.68,4.21,2.42,6.57,4.09,7.07,2.92.85,5.74-5.71,8.46-6C79,175.92,80.39,179.82,79.21,183.18Z"/><path class="cls-4" d="M61.83,170.47a19,19,0,0,0-3.28.52c-7.57,1.88-8.48,6.84-16.61,9.33,0,0-6.78,1.24-11.69-.73a2.08,2.08,0,0,1-1.32-1.76,1.83,1.83,0,0,1,.09-.72c9,2.82,13.81,1.44,16.55-.37,2.45-1.63,3.91-4.06,8.29-6.41a26.53,26.53,0,0,1,7.35-2.62C61.42,168.63,61.63,169.55,61.83,170.47Z"/><path class="cls-3" d="M65.13,167.24c-.51-.31-1.13-.67-1.84-1a31.85,31.85,0,0,0-14.19-3.63c-12.76-.2-21.27,7.58-23.14,9.38a2,2,0,0,1-.92-1,2.1,2.1,0,0,1,0-1.32l0-.08a1.41,1.41,0,0,1,.2-.38c.14-.12.36-.29.63-.49a41.21,41.21,0,0,1,7.41-4.48,45.55,45.55,0,0,1,8.88-3.09,40.1,40.1,0,0,1,5.93-1,41,41,0,0,1,16.23,2.1c.06.36.11.73.17,1.09C64.72,164.63,64.93,165.93,65.13,167.24Z"/><path class="cls-5" d="M64.55,164.34a22.21,22.21,0,0,0-3.71-2c-1.06-.45-4.3-1.73-11.2-1.73a57.82,57.82,0,0,0-7.45.49,40.1,40.1,0,0,1,5.93-1,41,41,0,0,1,16.23,2.1c.06.36.11.73.17,1.09Z"/><path class="cls-4" d="M63.29,166.2a31.85,31.85,0,0,0-14.19-3.63c-12.76-.2-21.27,7.58-23.14,9.38a2,2,0,0,1-.92-1,2,2,0,0,1,0-1.4A57.82,57.82,0,0,1,45,161.79c6.76-1.2,10.32-.43,12.92.71A17.34,17.34,0,0,1,63.29,166.2Z"/><path class="cls-3" d="M119.41,194.66A28.94,28.94,0,0,1,107,198a11,11,0,0,1-6.88-2,8.87,8.87,0,0,1-3.23-6c-.56-3.46-.06-7.65.09-11.85v0c.2-5.46-.21-10.95-4.33-14.89a16.17,16.17,0,0,0-4.19-2.84c-3.93-1.87-8.8-2.4-12.68-.29A13.05,13.05,0,0,0,70,167.38a15.92,15.92,0,0,0-.58,1.88q-1.81-2.22-3.64-4.42c.2-.32.51-.81.93-1.38a18.9,18.9,0,0,1,10.36-7.31,18,18,0,0,1,8.73.06,21,21,0,0,1,2.72.87,18.65,18.65,0,0,1,6.65,4.49,15.23,15.23,0,0,1,2.58,3.75c4.62,9.45-.91,22,3.63,28.16a7.21,7.21,0,0,0,1.64,1.62C109.06,199.43,119.37,194.45,119.41,194.66Z"/><path class="cls-5" d="M33.31,164.17c-1,.6-2,1.23-3.09,1.9q-2.77,1.79-5.18,3.53l0-.08a1.41,1.41,0,0,1,.2-.38c.14-.12.36-.29.63-.49A41.21,41.21,0,0,1,33.31,164.17Z"/><path class="cls-5" d="M38.15,177.34a14.63,14.63,0,0,1-7.61-.33,12.59,12.59,0,0,1-1.23-.47,1.8,1.8,0,0,1,.35-.42A22.06,22.06,0,0,0,38.15,177.34Z"/><path class="cls-6" d="M79.21,183.18a6.88,6.88,0,0,1-1.2,2.13c-2.53,3-7.08,3.26-10.13,2.37-6-1.75-7.76-8.3-8-9.23a12.57,12.57,0,0,1-.37-1.93c1,2.24,2.32,5,3.29,4.85.77-.14.7-2,1.59-2.14,1.07-.21,1.61,2.37,3.87,4,3,2.22,7.09,1.35,8.08,1.11A10.57,10.57,0,0,0,79.21,183.18Z"/><path class="cls-5" d="M77.73,173.33c-1.53,1.23-3.93,1.89-5.08,1.13s-.38-2.19-2-4.08c-1-1.16-1.91-1.36-2-2.28a2.43,2.43,0,0,1,.89-1.92,15.37,15.37,0,0,1,8,6.77Z"/><path class="cls-1" d="M93.82,156.56c-.88-19.75-18.58-29.66-19.52-30.16a35.4,35.4,0,0,0-11.23-3.76c-2.42-6.46-3.7-7.76-4.43-7.63s-.73,1.17-1.6,2.85a15.08,15.08,0,0,1-3.77,4.63,36.81,36.81,0,0,0-13.85,5c-.71.44-17,10.77-17.62,29.1a34.2,34.2,0,0,0,1.7,11.52,38.79,38.79,0,0,0,19.1,22.35c5.48.31,11.36.43,17.61.25,5.52-.16,10.76-.53,15.66-1.05a41.13,41.13,0,0,0,5.28-4.16C83.35,183.42,94.55,172.82,93.82,156.56ZM68,183c-13,0-23.55-11.86-23.55-26.5a29.24,29.24,0,0,1,1-7.79C48.39,137.84,57.35,130,68,130c9.08,0,17,5.78,20.88,14.26,0,0,0,0,0,0a29.06,29.06,0,0,1,2.65,12.21C91.49,171.11,81,183,68,183Z"/><path class="cls-7" d="M88.83,144.22C84.9,135.74,77,130,68,130c-10.6,0-19.56,7.88-22.51,18.72a8,8,0,0,1-1.28-4.19c0-5.14,6.09-9.13,5.73-9.54s-5.26,3.89-6.36,3c-.68-.58.62-2.72,0-3.18-1-.72-5.17,3.69-5.36,3.5s2.6-5.07,7.79-8.55c10-6.72,22.1-3.55,23.93-3a27.16,27.16,0,0,1,12.54,7A26.51,26.51,0,0,1,88.83,144.22Z"/><path class="cls-8" d="M81.15,185.47a41.13,41.13,0,0,1-5.28,4.16c-4.9.52-10.14.89-15.66,1.05-6.25.18-12.13.06-17.61-.25a38.79,38.79,0,0,1-19.1-22.35,34.94,34.94,0,0,0,4.05,4.83c4.12,4.08,9.9,7.73,11.16,6.56,1-.9-1.26-4.19-.44-4.81,1-.73,4.78,3.3,8.1,5.91a38,38,0,0,0,20.36,7.66A31,31,0,0,0,81.15,185.47Z"/><path class="cls-3" d="M92.13,184.75a5.39,5.39,0,0,1-2.65,3.31,6,6,0,0,0,.69-1.05,1.67,1.67,0,0,0,.12-.23,5.39,5.39,0,0,0,.55-2.89A3.52,3.52,0,0,0,90,181.6c-1.41-1.29-4.12,0-6.46.49s-6.07.33-11.19-2.76a1.28,1.28,0,0,1,0-1.31l0,0a1.27,1.27,0,0,1,.93-.55,14.85,14.85,0,0,0,8.38,3.06c4.39.09,7-2.23,9.06-.68A4.86,4.86,0,0,1,92.13,184.75Z"/><path class="cls-4" d="M90.29,186.78a5.39,5.39,0,0,0,.55-2.89A3.52,3.52,0,0,0,90,181.6c-1.41-1.29-4.12,0-6.46.49s-6.07.33-11.19-2.76a1.28,1.28,0,0,1,0-1.31,13.88,13.88,0,0,0,4.13,2.49,12.21,12.21,0,0,0,7,.82c2.24-.49,3.43-1.58,5.42-1a3.52,3.52,0,0,1,2,1.14C91.75,182.62,91.53,184.67,90.29,186.78Z"/><path class="cls-5" d="M69.08,178.7a3,3,0,0,1,1.25-2.12c2.06-1.17,4.3,2.74,8.91,3.4s8.47-2.59,11.11-.69a5.13,5.13,0,0,1,1.08,1.1,5.73,5.73,0,0,1,.7,4.36c0-2.83-.86-4-1.56-4.56-2.83-2.25-6.91,2.27-12.33.43-3.45-1.17-5.2-4.17-7.52-3.32A3.41,3.41,0,0,0,69.08,178.7Z"/><path class="cls-3" d="M119.41,194.66A28.94,28.94,0,0,1,107,198a11,11,0,0,1-6.88-2,8.87,8.87,0,0,1-3.23-6c-.56-3.46-.06-7.65.09-11.85v0c.2-5.46-.21-10.95-4.33-14.89a16.17,16.17,0,0,0-4.19-2.84c0-1.15.07-2.3.1-3.45a18.65,18.65,0,0,1,6.65,4.49,15.23,15.23,0,0,1,2.58,3.75c4.62,9.45-.91,22,3.63,28.16a7.21,7.21,0,0,0,1.64,1.62C109.06,199.43,119.37,194.45,119.41,194.66Z"/><path class="cls-4" d="M97,178.26c.15-.82,1.5-9.16-4.33-14.89A15.94,15.94,0,0,0,84,159.11a12.49,12.49,0,0,0-8.22,1.13,12,12,0,0,0-5.34,6.32l-2.05-.78a10.22,10.22,0,0,1,2.49-3.66l.24-.22a16.81,16.81,0,0,1,8.57-4,16.49,16.49,0,0,1,9,1.23c1.13.5,6.08,2.7,8,7.81a14.23,14.23,0,0,1,.72,4A30.7,30.7,0,0,1,97,178.26Z"/><path class="cls-4" d="M107,198a11,11,0,0,1-6.88-2,8.87,8.87,0,0,1-3.23-6,13,13,0,0,0,2.74,4.1A14.25,14.25,0,0,0,107,198Z"/><path class="cls-5" d="M101.41,193.48a7.22,7.22,0,0,1-2-1.91c-1.23-1.78-1.36-3.68-1.56-6.72-.34-5.13.89-6.54,1-11.3a29.32,29.32,0,0,0-1.09-8.23C102.4,174.77,96.87,187.31,101.41,193.48Z"/><path class="cls-3" d="M69.72,136.6a9.2,9.2,0,0,0-.91.27,13.72,13.72,0,0,0-2.13.94,68.1,68.1,0,0,0-6.46-6.57A52.58,52.58,0,0,1,55.75,127a2.25,2.25,0,0,1-.23-.39s0,0,0,0a.19.19,0,0,1,0-.17c.53-.72,7.67,2.87,13.54,9.51.2.21.38.43.57.65Z"/><path class="cls-4" d="M74.7,146.6a3,3,0,0,1-.09.41c-1,3.58-5.45,3.52-7.45,7.45-1.87,3.66-.3,8.19,1.22,11.32L69,166a5,5,0,0,1-3.88,1.25,5.31,5.31,0,0,1-2.8-1.45c.39-.58.69-1,.81-1.11-1.49-3.87-2.68-9-.3-12.77,2.24-3.59,5.85-3.15,6.94-5.84,1.67-4.15-4.79-10.45-9.56-14.83A52.48,52.48,0,0,0,55.75,127l-.23-.39a89.39,89.39,0,0,1,13.44,12c.62.68,1.17,1.31,1.68,1.9A22.94,22.94,0,0,1,74.7,146.6Z"/><path class="cls-5" d="M69.07,135.85c-1.18-.78-2.9-2.06-5.24-3.79-2.87-2.13-3.3-2.66-5.32-3.9-1.22-.75-2.23-1.27-3-1.65a.19.19,0,0,1,0-.17C56.06,125.62,63.2,129.21,69.07,135.85Z"/><path class="cls-6" d="M74.7,146.6a3,3,0,0,1-.09.41c-1,3.58-5.45,3.52-7.45,7.45-1.87,3.66-.3,8.19,1.22,11.32a8.83,8.83,0,0,1-3.21-3.25,9.54,9.54,0,0,1,.84-10c1.91-2.47,3.84-1.89,5.13-3.92.86-1.32,1.36-3.67-.5-8.13A22.94,22.94,0,0,1,74.7,146.6Z"/><line class="cls-9" x1="57.93" y1="106.69" x2="57.82"/></svg>