<svg id="_3" data-name="3" xmlns="http://www.w3.org/2000/svg" viewBox="0 0 599.35 768"><defs><style>.cls-1,.cls-2,.cls-3,.cls-4{fill:#d8ecef;}.cls-1{opacity:0.5;}.cls-2{opacity:0.23;}.cls-4{opacity:0.61;}.cls-5{fill:none;stroke:#f4dca6;stroke-miterlimit:10;stroke-width:0.5px;}</style></defs><title>feature-image3</title><path class="cls-1" d="M157.45,247.93a23.84,23.84,0,0,0,3.06,2.41c2.84.3,5.88.52,9.08.61,3.62.1,7,0,10.21-.14a22.49,22.49,0,0,0,11.07-13,20.06,20.06,0,0,0,1-6.68,20.42,20.42,0,0,0-5.49-12.82,22.09,22.09,0,0,0-11.17-6.58c-.38-1.06-.93-2.46-1.69-4.06-1.27-2.69-1.9-4-2.6-4.09s-2,.89-4.16,8.12c-9.65,3-16.31,11-16.65,19.43C149.73,240.44,157.09,247.6,157.45,247.93Zm-6-16.81A16.85,16.85,0,0,1,153,224s0,0,0,0c2.28-4.92,6.84-8.27,12.1-8.27,6.15,0,11.34,4.57,13,10.85a17,17,0,0,1,.6,4.52c0,8.49-6.11,15.36-13.65,15.36S151.46,239.61,151.46,231.12Z"/><path class="cls-2" d="M176.81,246.79a10.22,10.22,0,0,0,2.3-1.15c3.18-2.13,4.58-5.9,4.08-6.29s-2.43,2.13-3.13,1.67c-.93-.61,1.28-5.77,1.1-5.84s-.58,2-1.68,2.21-2.48-1.74-2.69-2c-1.07-1.58-1-2.77-1.59-2.88s-1,1-2.39,2.09a6.38,6.38,0,0,1-3,1.29c-3.08.16-5.65-5-6-4.77s1.94,3.5,1.36,4c-.12.11-.42.14-2.45-1-2.48-1.43-3.35-2.24-3.68-2-.56.42,1.21,3.39.82,3.65s-2.43-3.17-3.41-2.85c-1.4.46-2.12,9.09,2.61,13.66C163.13,250.43,170.51,250.76,176.81,246.79Z"/><path class="cls-1" d="M151.09,231.17c.41-11,10.72-19.37,20.65-19,9.14.36,18.86,8.14,19.13,19a20.91,20.91,0,0,1-11.49,18.71c-3,.17-6.27.23-9.72.13-3.05-.09-5.94-.29-8.65-.58C154.74,245.27,150.82,238.3,151.09,231.17Z"/><path class="cls-1" d="M158.09,247.14a22.71,22.71,0,0,0,2.92,2.3c2.71.29,5.6.49,8.65.58,3.45.1,6.7,0,9.73-.14a21.43,21.43,0,0,0,10.55-12.34,18.89,18.89,0,0,0,.94-6.36c-.35-10.12-9.34-15.83-9.73-16.07a20.33,20.33,0,0,0-7.65-2.75,8.33,8.33,0,0,1-2.08-2.56c-.48-.93-.55-1.51-.88-1.57s-1.11.65-2.44,4.21a19.55,19.55,0,0,0-6.2,2.08c-.52.28-10.29,5.75-10.78,16.66C150.69,240.15,156.87,246,158.09,247.14Zm-5.71-16a16.05,16.05,0,0,1,1.46-6.74s0,0,0,0c2.17-4.68,6.52-7.88,11.53-7.88,5.85,0,10.8,4.35,12.43,10.34a16.15,16.15,0,0,1,.57,4.3c0,8.09-5.82,14.64-13,14.64S152.38,239.21,152.38,231.12Z"/><path class="cls-3" d="M153.85,224.35c2.17-4.68,6.52-7.88,11.53-7.88,5.85,0,10.8,4.35,12.43,10.34a4.43,4.43,0,0,0,.71-2.31c0-2.84-3.36-5-3.16-5.27s2.91,2.15,3.51,1.64c.38-.32-.34-1.5,0-1.76.53-.4,2.86,2,3,1.93a12.12,12.12,0,0,0-4.3-4.72c-5.54-3.71-12.21-2-13.22-1.68a15,15,0,0,0-6.93,3.87A14.64,14.64,0,0,0,153.85,224.35Z"/><path class="cls-4" d="M158.09,247.14a22.71,22.71,0,0,0,2.92,2.3c2.71.29,5.6.49,8.65.58,3.45.1,6.7,0,9.73-.14a21.43,21.43,0,0,0,10.55-12.34,19.3,19.3,0,0,1-2.24,2.67c-2.28,2.25-5.47,4.27-6.16,3.62-.54-.5.7-2.31.24-2.66s-2.64,1.82-4.47,3.26a21,21,0,0,1-11.24,4.23A17.09,17.09,0,0,1,158.09,247.14Z"/><line class="cls-5" x1="170.98" y1="203.62" x2="170.98"/></svg>