<svg xmlns="http://www.w3.org/2000/svg" viewBox="0 0 599.35 768"><defs><style>.cls-1{isolation:isolate;}.cls-2{fill:#b1dfef;}.cls-3{fill:none;stroke:#a1d0db;stroke-miterlimit:10;}.cls-4{fill:#f7f7f7;}.cls-5{fill:#f35123;}.cls-6{fill:#7fb904;}.cls-7{fill:#02a4ef;}.cls-8{fill:#ffb902;}.cls-9{fill:#0ba6dd;opacity:0.16;}.cls-13,.cls-9{mix-blend-mode:multiply;}.cls-10{fill:#7eaf05;}.cls-11{fill:#f7ac06;}.cls-12{fill:#e8421a;}.cls-13{fill:#a1d0db;opacity:0.19;}</style></defs><title>feature-image6</title><g class="cls-1"><g id="_6" data-name="6"><rect class="cls-2" width="599.35" height="768"/><rect class="cls-3" x="533.14" width="66.21" height="66.21"/><rect class="cls-3" x="533.14" y="66.21" width="66.21" height="66.21"/><rect class="cls-3" x="533.14" y="132.07" width="66.21" height="66.21"/><rect class="cls-3" x="533.14" y="198.28" width="66.21" height="66.21"/><rect class="cls-3" x="467.08" width="66.21" height="66.21"/><rect class="cls-3" x="467.08" y="66.21" width="66.21" height="66.21"/><rect class="cls-3" x="467.08" y="132.07" width="66.21" height="66.21"/><rect class="cls-3" x="467.08" y="198.28" width="66.21" height="66.21"/><rect class="cls-3" x="401.01" width="66.21" height="66.21"/><rect class="cls-3" x="401.01" y="66.21" width="66.21" height="66.21"/><rect class="cls-3" x="401.01" y="132.07" width="66.21" height="66.21"/><rect class="cls-3" x="401.01" y="198.28" width="66.21" height="66.21"/><rect class="cls-3" x="334.95" width="66.21" height="66.21"/><rect class="cls-3" x="334.95" y="66.21" width="66.21" height="66.21"/><rect class="cls-3" x="334.95" y="132.07" width="66.21" height="66.21"/><rect class="cls-3" x="334.95" y="198.28" width="66.21" height="66.21"/><rect class="cls-3" x="533.14" y="265.14" width="66.21" height="66.21"/><rect class="cls-3" x="533.14" y="331.35" width="66.21" height="66.21"/><rect class="cls-3" x="533.14" y="397.21" width="66.21" height="66.21"/><rect class="cls-3" x="533.14" y="463.42" width="66.21" height="66.21"/><rect class="cls-3" x="467.08" y="265.14" width="66.21" height="66.21"/><rect class="cls-3" x="467.08" y="331.35" width="66.21" height="66.21"/><rect class="cls-3" x="467.08" y="397.21" width="66.21" height="66.21"/><rect class="cls-3" x="467.08" y="463.42" width="66.21" height="66.21"/><rect class="cls-3" x="401.01" y="265.14" width="66.21" height="66.21"/><rect class="cls-3" x="401.01" y="331.35" width="66.21" height="66.21"/><rect class="cls-3" x="401.01" y="397.21" width="66.21" height="66.21"/><rect class="cls-3" x="401.01" y="463.42" width="66.21" height="66.21"/><rect class="cls-3" x="334.95" y="265.14" width="66.21" height="66.21"/><rect class="cls-3" x="334.95" y="331.35" width="66.21" height="66.21"/><rect class="cls-3" x="334.95" y="397.21" width="66.21" height="66.21"/><rect class="cls-3" x="334.95" y="463.42" width="66.21" height="66.21"/><rect class="cls-3" x="533.14" y="531.27" width="66.21" height="66.21"/><rect class="cls-3" x="533.14" y="597.48" width="66.21" height="66.21"/><rect class="cls-3" x="533.14" y="663.34" width="66.21" height="66.21"/><rect class="cls-3" x="467.08" y="531.27" width="66.21" height="66.21"/><rect class="cls-3" x="467.08" y="597.48" width="66.21" height="66.21"/><rect class="cls-3" x="467.08" y="663.34" width="66.21" height="66.21"/><rect class="cls-3" x="401.01" y="531.27" width="66.21" height="66.21"/><rect class="cls-3" x="401.01" y="597.48" width="66.21" height="66.21"/><rect class="cls-3" x="401.01" y="663.34" width="66.21" height="66.21"/><rect class="cls-3" x="334.95" y="531.27" width="66.21" height="66.21"/><rect class="cls-3" x="334.95" y="597.48" width="66.21" height="66.21"/><rect class="cls-3" x="334.95" y="663.34" width="66.21" height="66.21"/><rect class="cls-3" x="268.32" width="66.21" height="66.21"/><rect class="cls-3" x="268.32" y="66.21" width="66.21" height="66.21"/><rect class="cls-3" x="268.32" y="132.07" width="66.21" height="66.21"/><rect class="cls-3" x="268.32" y="198.28" width="66.21" height="66.21"/><rect class="cls-3" x="202.27" width="66.21" height="66.21"/><rect class="cls-3" x="202.27" y="66.21" width="66.21" height="66.21"/><rect class="cls-3" x="202.27" y="132.07" width="66.21" height="66.21"/><rect class="cls-3" x="202.27" y="198.28" width="66.21" height="66.21"/><rect class="cls-3" x="136.19" width="66.21" height="66.21"/><rect class="cls-3" x="136.19" y="66.21" width="66.21" height="66.21"/><rect class="cls-3" x="136.19" y="132.07" width="66.21" height="66.21"/><rect class="cls-3" x="136.19" y="198.28" width="66.21" height="66.21"/><rect class="cls-3" x="70.14" width="66.21" height="66.21"/><rect class="cls-3" x="70.14" y="66.21" width="66.21" height="66.21"/><rect class="cls-3" x="70.14" y="132.07" width="66.21" height="66.21"/><rect class="cls-3" x="70.14" y="198.28" width="66.21" height="66.21"/><rect class="cls-3" x="268.32" y="265.14" width="66.21" height="66.21"/><rect class="cls-3" x="268.32" y="331.35" width="66.21" height="66.21"/><rect class="cls-3" x="268.32" y="397.21" width="66.21" height="66.21"/><rect class="cls-3" x="268.32" y="463.42" width="66.21" height="66.21"/><rect class="cls-3" x="202.27" y="265.14" width="66.21" height="66.21"/><rect class="cls-3" x="202.27" y="331.35" width="66.21" height="66.21"/><rect class="cls-3" x="202.27" y="397.21" width="66.21" height="66.21"/><rect class="cls-3" x="202.27" y="463.42" width="66.21" height="66.21"/><rect class="cls-3" x="136.19" y="265.14" width="66.21" height="66.21"/><rect class="cls-3" x="136.19" y="331.35" width="66.21" height="66.21"/><rect class="cls-3" x="136.19" y="397.21" width="66.21" height="66.21"/><rect class="cls-3" x="136.19" y="463.42" width="66.21" height="66.21"/><rect class="cls-3" x="70.14" y="265.14" width="66.21" height="66.21"/><rect class="cls-3" x="70.14" y="331.35" width="66.21" height="66.21"/><rect class="cls-3" x="70.14" y="397.21" width="66.21" height="66.21"/><rect class="cls-3" x="70.14" y="463.42" width="66.21" height="66.21"/><rect class="cls-3" x="268.32" y="531.27" width="66.21" height="66.21"/><rect class="cls-3" x="268.32" y="597.48" width="66.21" height="66.21"/><rect class="cls-3" x="268.32" y="663.34" width="66.21" height="66.21"/><rect class="cls-3" x="202.27" y="531.27" width="66.21" height="66.21"/><rect class="cls-3" x="202.27" y="597.48" width="66.21" height="66.21"/><rect class="cls-3" x="202.27" y="663.34" width="66.21" height="66.21"/><rect class="cls-3" x="4.19" width="66.21" height="66.21"/><rect class="cls-3" x="4.19" y="66.21" width="66.21" height="66.21"/><rect class="cls-3" x="4.19" y="132.07" width="66.21" height="66.21"/><rect class="cls-3" x="4.19" y="198.28" width="66.21" height="66.21"/><rect class="cls-3" x="-61.87" width="66.21" height="66.21"/><rect class="cls-3" x="-61.87" y="66.21" width="66.21" height="66.21"/><rect class="cls-3" x="-61.87" y="132.07" width="66.21" height="66.21"/><rect class="cls-3" x="-61.87" y="198.28" width="66.21" height="66.21"/><rect class="cls-3" x="4.19" y="265.14" width="66.21" height="66.21"/><rect class="cls-3" x="4.19" y="331.35" width="66.21" height="66.21"/><rect class="cls-3" x="4.19" y="397.21" width="66.21" height="66.21"/><rect class="cls-3" x="4.19" y="463.42" width="66.21" height="66.21"/><rect class="cls-3" x="-61.87" y="265.14" width="66.21" height="66.21"/><rect class="cls-3" x="-61.87" y="331.35" width="66.21" height="66.21"/><rect class="cls-3" x="-61.87" y="397.21" width="66.21" height="66.21"/><rect class="cls-3" x="-61.87" y="463.42" width="66.21" height="66.21"/><rect class="cls-3" x="4.19" y="531.27" width="66.21" height="66.21"/><rect class="cls-3" x="4.19" y="597.48" width="66.21" height="66.21"/><rect class="cls-3" x="4.19" y="663.34" width="66.21" height="66.21"/><rect class="cls-3" x="-61.87" y="531.27" width="66.21" height="66.21"/><rect class="cls-3" x="-61.87" y="597.48" width="66.21" height="66.21"/><rect class="cls-3" x="-61.87" y="663.34" width="66.21" height="66.21"/><rect class="cls-3" x="136.19" y="531.27" width="66.21" height="66.21"/><rect class="cls-3" x="136.19" y="597.48" width="66.21" height="66.21"/><rect class="cls-3" x="136.19" y="663.34" width="66.21" height="66.21"/><rect class="cls-3" x="70.14" y="531.27" width="66.21" height="66.21"/><rect class="cls-3" x="70.14" y="597.48" width="66.21" height="66.21"/><rect class="cls-3" x="70.14" y="663.34" width="66.21" height="66.21"/><rect class="cls-4" width="296.54" height="302.26"/><rect class="cls-5" width="138.31" height="50.81"/><rect class="cls-6" x="138.39" width="142.46" height="50.81"/><rect class="cls-7" y="50.46" width="138.31" height="241.2"/><rect class="cls-8" x="138.39" y="50.46" width="142.46" height="241.2"/><path class="cls-9" d="M131.31,302.26H0V116.32c-1.46,10.11-10.5,81,40.46,136.52C74.35,289.74,116.09,299.48,131.31,302.26Z"/><path class="cls-10" d="M159.19,0c-.88,1.51-1.75,3.1-2.59,4.75A101.31,101.31,0,0,0,145.79,44q-.11-22-.2-44Z"/><path class="cls-11" d="M149.92,143.94l-.38-81.73,57.51-.76c-10.91,1.15-19.75,1.65-25.73,1.89-14.74.61-22.08,2.17-25,4.54-5.7,4.67-6.49,12.24-6.58,45.12C149.75,125,149.82,135.44,149.92,143.94Z"/><path class="cls-12" d="M55,41.78c4.71-.06,13.52-.18,24.71-.23Z"/><path class="cls-12" d="M81.45,41.54l15.08-.14C92.53,41.49,87.61,41.51,81.45,41.54Z"/><path class="cls-12" d="M124.7,0l-.24,41.14-27.83.26c10.47-.27,14.59-1.12,18.06-4.5,2.29-2.22,3.87-5.12,6.52-21.83.86-5.45,1.54-10.5,2.08-15.07Z"/><path class="cls-13" d="M599.35,246.84v486L0,745.67l-2.27-57.84c45.11,3.2,218.69,10.2,383.09-111C543.56,456.8,588.73,291.21,599.35,246.84Z"/></g></g></svg>